<svg width="21" height="20" viewBox="0 0 21 20" fill="none" xmlns="http://www.w3.org/2000/svg">
<path d="M20.6526 14.2124L19.595 12.5808C18.8379 11.4212 18.4482 10.0975 18.4482 8.75321V6.92663C18.4482 3.10929 15.0748 0 10.9332 0C6.79153 0 3.4181 3.10929 3.4181 6.92663V8.75321C3.4181 10.0975 3.0173 11.4212 2.27136 12.5808L1.21369 14.2022C0.846282 14.7665 0.835149 15.4438 1.19142 16.0082C1.54769 16.5726 2.17116 16.9215 2.8837 16.9215H6.84719C7.23686 18.6762 8.91801 20 10.9332 20C12.9483 20 14.6406 18.6762 15.0191 16.9215H18.9826C19.6952 16.9215 20.3298 16.5829 20.6749 16.0082C21.02 15.4336 21.02 14.7665 20.6526 14.2022V14.2124ZM10.9332 18.471C9.84208 18.471 8.92914 17.8245 8.58401 16.9318H13.2823C12.9372 17.8245 12.0131 18.471 10.9332 18.471ZM19.2276 15.2591C19.2276 15.2591 19.1274 15.3925 18.9826 15.3925H2.8837C2.73896 15.3925 2.67216 15.3104 2.63876 15.2591C2.60536 15.2078 2.57196 15.1154 2.63876 15.0026L3.69644 13.371C4.60938 11.9754 5.08811 10.3746 5.08811 8.75321V6.92663C5.08811 3.95074 7.7156 1.53925 10.9332 1.53925C14.1507 1.53925 16.7782 3.95074 16.7782 6.92663V8.75321C16.7782 10.3746 17.2569 11.9754 18.1699 13.371L19.2276 15.0026C19.2944 15.1154 19.261 15.2078 19.2276 15.2591Z" fill="#2B2B2B"/>
</svg>
